<svg width="293" height="47" viewBox="0 0 293 47" fill="none" xmlns="http://www.w3.org/2000/svg">
<path d="M65.5802 24L60.7081 4.17186H63.2008L68.1579 23.915H68.1862L73.2282 4.17186H78.4685L83.8788 23.9433H83.9071L88.2976 4.17186H90.9036L86.4847 24H81.2728L75.8625 4.22851H75.8342L70.7638 24H65.5802ZM110.341 4.17186V6.57956H96.5747V12.8113H110.341V15.134H96.5747V21.564H110.341V24H94.0254V4.17186H110.341ZM113.456 24V4.17186H122.889C123.588 4.17186 124.305 4.25683 125.042 4.42679C125.778 4.59674 126.439 4.87056 127.024 5.24824C127.629 5.60704 128.11 6.07914 128.469 6.66454C128.828 7.24994 128.979 7.95809 128.922 8.78898C128.866 9.4688 128.63 10.0353 128.214 10.4885C127.818 10.9418 127.327 11.31 126.741 11.5932C126.156 11.8576 125.533 12.0465 124.872 12.1598C124.211 12.2542 123.606 12.3014 123.059 12.3014C123.927 12.358 124.749 12.5186 125.523 12.7829C126.316 13.0284 127.006 13.3872 127.591 13.8593C128.176 14.3314 128.639 14.9168 128.979 15.6155C129.338 16.3142 129.517 17.1451 129.517 18.1082C129.517 19.2035 129.357 20.1288 129.036 20.8841C128.715 21.6395 128.261 22.2532 127.676 22.7253C127.091 23.1785 126.392 23.509 125.58 23.7167C124.768 23.9056 123.871 24 122.889 24H113.456ZM116.006 12.3014H122.436C122.946 12.3014 123.436 12.2353 123.909 12.1031C124.4 11.952 124.834 11.7443 125.212 11.4799C125.608 11.2156 125.92 10.904 126.146 10.5452C126.373 10.1675 126.486 9.75206 126.486 9.29885C126.486 8.80787 126.373 8.38298 126.146 8.02418C125.939 7.66539 125.646 7.37269 125.268 7.14608C124.909 6.91947 124.485 6.75896 123.994 6.66454C123.503 6.55123 122.983 6.49458 122.436 6.49458H116.006V12.3014ZM122.634 14.5675H116.006V21.6773H122.634C123.295 21.6773 123.88 21.6206 124.39 21.5073C124.919 21.394 125.372 21.2052 125.75 20.9408C126.127 20.6575 126.411 20.2799 126.6 19.8078C126.807 19.3357 126.911 18.7314 126.911 17.9949C126.911 17.3906 126.798 16.8808 126.571 16.4653C126.345 16.031 126.042 15.6722 125.665 15.3889C125.287 15.1057 124.834 14.8979 124.305 14.7658C123.795 14.6336 123.238 14.5675 122.634 14.5675ZM148.761 24H140.009V4.17186H148.506C150.017 4.17186 151.377 4.42679 152.585 4.93666C153.794 5.42764 154.823 6.1169 155.673 7.00445C156.541 7.87311 157.202 8.92117 157.656 10.1486C158.128 11.3572 158.364 12.6885 158.364 14.1426C158.364 15.5966 158.128 16.928 157.656 18.1365C157.202 19.3451 156.551 20.3837 155.701 21.2524C154.87 22.121 153.86 22.8009 152.67 23.2919C151.499 23.764 150.196 24 148.761 24ZM142.558 6.60789V21.564H148.336C149.507 21.564 150.546 21.394 151.452 21.0541C152.359 20.6953 153.123 20.1949 153.747 19.5528C154.389 18.9108 154.87 18.1365 155.191 17.2301C155.531 16.3048 155.701 15.2756 155.701 14.1426C155.701 12.9907 155.531 11.952 155.191 11.0267C154.851 10.0825 154.36 9.28941 153.718 8.64735C153.076 7.98641 152.283 7.48599 151.339 7.14608C150.395 6.78728 149.309 6.60789 148.081 6.60789H142.558ZM177.802 4.17186V6.57956H164.036V12.8113H177.802V15.134H164.036V21.564H177.802V24H161.486V4.17186H177.802ZM181.201 9.97867C181.201 8.75121 181.465 7.75981 181.994 7.00445C182.523 6.24909 183.202 5.66369 184.033 5.24824C184.883 4.81391 185.827 4.53065 186.866 4.39846C187.904 4.24739 188.934 4.17186 189.953 4.17186C191.03 4.17186 192.087 4.23795 193.126 4.37014C194.183 4.48344 195.128 4.74782 195.958 5.16326C196.789 5.57871 197.46 6.17355 197.97 6.9478C198.479 7.72204 198.734 8.76065 198.734 10.0636H196.242C196.242 9.23275 196.062 8.58126 195.703 8.10916C195.345 7.61818 194.873 7.25938 194.287 7.03277C193.702 6.78728 193.031 6.63621 192.276 6.57956C191.521 6.50402 190.746 6.46626 189.953 6.46626C189.217 6.46626 188.471 6.49458 187.716 6.55123C186.979 6.60789 186.309 6.75896 185.704 7.00445C185.119 7.23106 184.638 7.58041 184.26 8.05251C183.882 8.50572 183.693 9.12889 183.693 9.92202C183.693 10.734 183.967 11.3855 184.515 11.8765C185.081 12.3675 185.95 12.6696 187.121 12.7829L193.806 13.3778C195.486 13.5289 196.78 13.9821 197.686 14.7374C198.593 15.4739 199.046 16.6069 199.046 18.1365C199.046 19.4773 198.763 20.5348 198.196 21.309C197.63 22.0833 196.893 22.6687 195.987 23.0652C195.08 23.4618 194.07 23.7167 192.956 23.83C191.842 23.9433 190.746 24 189.67 24C188.631 24 187.593 23.9339 186.554 23.8017C185.516 23.6506 184.571 23.3674 183.722 22.9519C182.891 22.5176 182.211 21.9228 181.682 21.1674C181.172 20.3932 180.917 19.3734 180.917 18.1082H183.41C183.41 18.8825 183.589 19.5056 183.948 19.9777C184.307 20.4498 184.779 20.8181 185.365 21.0824C185.969 21.3279 186.649 21.4979 187.404 21.5923C188.159 21.6678 188.924 21.7056 189.698 21.7056C190.548 21.7056 191.379 21.6773 192.191 21.6206C193.022 21.564 193.768 21.4223 194.429 21.1957C195.09 20.9691 195.619 20.6292 196.015 20.176C196.431 19.7228 196.638 19.0996 196.638 18.3065C196.638 17.8344 196.553 17.4473 196.383 17.1451C196.232 16.8241 196.006 16.5692 195.703 16.3803C195.42 16.1915 195.061 16.0499 194.627 15.9554C194.212 15.861 193.749 15.7855 193.239 15.7288L186.526 15.1057C184.807 14.9546 183.486 14.4542 182.56 13.6044C181.654 12.7546 181.201 11.546 181.201 9.97867ZM202.316 4.17186H204.865V24H202.316V4.17186ZM219.039 6.55123C216.376 6.55123 214.327 7.19329 212.892 8.4774C211.457 9.7615 210.739 11.6971 210.739 14.2842C210.739 16.758 211.429 18.5992 212.807 19.8078C214.205 21.0163 216.15 21.6206 218.642 21.6206C219.417 21.6206 220.229 21.4696 221.078 21.1674C221.947 20.8653 222.74 20.4498 223.458 19.9211C224.175 19.3923 224.77 18.7597 225.242 18.0232C225.733 17.2868 225.979 16.4936 225.979 15.6439H218.614V13.3778H228.387V23.7167H225.979V15.6439C225.979 16.5314 225.818 17.4662 225.497 18.4481C225.195 19.4301 224.732 20.3365 224.109 21.1674C223.486 21.9794 222.702 22.6592 221.758 23.2069C220.814 23.7356 219.7 24 218.416 24C216.811 24 215.366 23.7828 214.082 23.3485C212.817 22.9142 211.74 22.2816 210.853 21.4507C209.965 20.6198 209.285 19.5906 208.813 18.3631C208.36 17.1357 208.133 15.7288 208.133 14.1426C208.133 12.4053 208.407 10.9134 208.955 9.66708C209.503 8.40186 210.267 7.36324 211.249 6.55123C212.231 5.73922 213.383 5.14438 214.705 4.7667C216.046 4.37014 217.509 4.17186 219.096 4.17186C220.229 4.17186 221.324 4.30404 222.381 4.56842C223.439 4.81391 224.393 5.21047 225.242 5.75811C226.092 6.30574 226.791 7.01389 227.338 7.88255C227.905 8.75121 228.254 9.79927 228.387 11.0267H225.809C225.393 9.34606 224.6 8.18469 223.429 7.54264C222.278 6.8817 220.814 6.55123 219.039 6.55123ZM250.584 4.17186V24H245.315L234.013 4.17186H236.676L248.063 24V4.17186H250.584ZM231.492 24V4.17186H234.013V24H231.492ZM270.005 4.17186V6.57956H256.239V12.8113H270.005V15.134H256.239V21.564H270.005V24H253.69V4.17186H270.005ZM275.67 24H273.12V4.17186H284.592C285.442 4.17186 286.311 4.25683 287.198 4.42679C288.086 4.57786 288.898 4.85168 289.634 5.24824C290.371 5.6448 290.966 6.17355 291.419 6.83449C291.891 7.47655 292.127 8.298 292.127 9.29885C292.127 10.0542 291.91 10.7151 291.476 11.2817C291.041 11.8482 290.513 12.3297 289.889 12.7263C289.266 13.104 288.596 13.4061 287.878 13.6327C287.18 13.8404 286.547 13.9632 285.98 14.001H292.127V24H289.464V16.3237H275.67V24ZM275.67 6.52291V14.001H284.564C285.282 14.001 285.952 13.8971 286.575 13.6894C287.198 13.4628 287.746 13.1606 288.218 12.7829C288.709 12.4053 289.087 11.9709 289.351 11.4799C289.634 10.9701 289.776 10.4319 289.776 9.86537C289.776 9.14778 289.587 8.57182 289.21 8.13749C288.832 7.70315 288.369 7.36324 287.822 7.11775C287.293 6.87226 286.726 6.71175 286.122 6.63621C285.537 6.56068 285.027 6.52291 284.592 6.52291H275.67Z" fill="white"/>
<path d="M206.63 34.1281V34.9773H200.191V38.2472H206.63V39.0837H200.191V43H199.317V34.1281H206.63ZM214.867 39.578V34.1281H215.742V39.6287C215.742 40.161 215.839 40.5919 216.033 40.9214C216.228 41.2425 216.486 41.496 216.807 41.6819C217.136 41.8593 217.512 41.9818 217.935 42.0494C218.366 42.1086 218.813 42.1382 219.278 42.1382C219.717 42.1382 220.148 42.1086 220.571 42.0494C221.002 41.9818 221.382 41.8593 221.711 41.6819C222.049 41.496 222.32 41.2383 222.523 40.9088C222.734 40.5792 222.839 40.1525 222.839 39.6287V34.1281H223.714V39.578C223.714 40.2877 223.591 40.8665 223.346 41.3143C223.11 41.7537 222.785 42.1001 222.371 42.3536C221.965 42.5987 221.492 42.7676 220.951 42.8606C220.419 42.9535 219.861 43 219.278 43C218.695 43 218.137 42.9535 217.605 42.8606C217.073 42.7676 216.604 42.5944 216.198 42.3409C215.793 42.0875 215.467 41.741 215.222 41.3017C214.986 40.8538 214.867 40.2793 214.867 39.578ZM240.254 34.1281V34.9773H236.541V43H235.666V34.9773H231.953V34.1281H240.254ZM248.494 39.578V34.1281H249.368V39.6287C249.368 40.161 249.465 40.5919 249.66 40.9214C249.854 41.2425 250.112 41.496 250.433 41.6819C250.762 41.8593 251.138 41.9818 251.561 42.0494C251.992 42.1086 252.439 42.1382 252.904 42.1382C253.344 42.1382 253.774 42.1086 254.197 42.0494C254.628 41.9818 255.008 41.8593 255.338 41.6819C255.676 41.496 255.946 41.2383 256.149 40.9088C256.36 40.5792 256.466 40.1525 256.466 39.6287V34.1281H257.34V39.578C257.34 40.2877 257.218 40.8665 256.973 41.3143C256.736 41.7537 256.411 42.1001 255.997 42.3536C255.591 42.5987 255.118 42.7676 254.577 42.8606C254.045 42.9535 253.487 43 252.904 43C252.321 43 251.764 42.9535 251.231 42.8606C250.699 42.7676 250.23 42.5944 249.824 42.3409C249.419 42.0875 249.093 41.741 248.848 41.3017C248.612 40.8538 248.494 40.2793 248.494 39.578ZM266.453 43H265.579V34.1281H270.712C271.092 34.1281 271.481 34.1661 271.878 34.2422C272.275 34.3098 272.638 34.4323 272.968 34.6097C273.297 34.7871 273.564 35.0237 273.766 35.3195C273.978 35.6067 274.083 35.9743 274.083 36.4221C274.083 36.777 273.978 37.0896 273.766 37.36C273.564 37.6219 273.314 37.8416 273.019 38.0191C272.723 38.1965 272.406 38.3359 272.068 38.4373C271.739 38.5387 271.447 38.6021 271.194 38.6274H274.083V43H273.183V39.4639H266.453V43ZM266.453 34.9646V38.6274H270.699C271.063 38.6274 271.405 38.5725 271.726 38.4627C272.047 38.3444 272.326 38.1923 272.562 38.0064C272.807 37.812 273.002 37.5924 273.145 37.3473C273.289 37.0938 273.361 36.8361 273.361 36.5742C273.361 36.2109 273.259 35.9236 273.057 35.7124C272.854 35.5011 272.609 35.3406 272.322 35.2307C272.043 35.1209 271.751 35.0491 271.447 35.0153C271.151 34.9815 270.906 34.9646 270.712 34.9646H266.453ZM291.848 38.564C291.848 40.0089 291.439 41.1116 290.619 41.872C289.799 42.624 288.621 43 287.083 43C285.528 43 284.345 42.624 283.534 41.872C282.731 41.1116 282.33 40.0089 282.33 38.564C282.33 37.1023 282.744 35.9996 283.572 35.2561C284.4 34.5041 285.575 34.1281 287.096 34.1281C288.616 34.1281 289.787 34.4956 290.606 35.2307C291.434 35.9574 291.848 37.0685 291.848 38.564ZM290.961 38.526C290.961 37.3516 290.64 36.4686 289.998 35.8771C289.364 35.2772 288.405 34.9773 287.121 34.9773C285.811 34.9773 284.831 35.2814 284.181 35.8898C283.538 36.4982 283.217 37.3896 283.217 38.564C283.217 39.7554 283.543 40.6511 284.193 41.251C284.852 41.8509 285.828 42.1508 287.121 42.1508C288.431 42.1508 289.398 41.834 290.023 41.2003C290.649 40.5581 290.961 39.6667 290.961 38.526Z" fill="white"/>
<rect x="60.4316" y="34" width="132" height="1" fill="url(#paint0_linear_5660_10361)"/>
<rect width="47" height="47" rx="8" fill="url(#paint1_linear_5660_10361)"/>
<path d="M9.84978 14.1719H12.3991V34H9.84978V14.1719ZM29.3491 14.1719L37.252 34H34.4761L32.5499 29.1279H20.3981L18.3303 34H15.5544L23.9955 14.1719H26.6864L21.2479 26.8619H31.7285L26.6864 14.1719H29.3491Z" fill="white"/>
<defs>
<linearGradient id="paint0_linear_5660_10361" x1="192.432" y1="34.4908" x2="60.4316" y2="34.4907" gradientUnits="userSpaceOnUse">
<stop stop-color="#FF8400"/>
<stop offset="0.5" stop-color="#FF0095"/>
<stop offset="1" stop-color="#4E02FF"/>
</linearGradient>
<linearGradient id="paint1_linear_5660_10361" x1="47" y1="23.0666" x2="-1.25761e-07" y2="23.0666" gradientUnits="userSpaceOnUse">
<stop stop-color="#FF8400"/>
<stop offset="1" stop-color="#A600FF"/>
</linearGradient>
</defs>
</svg>
