<svg width="2853" height="614" viewBox="0 0 2853 614" fill="none" xmlns="http://www.w3.org/2000/svg">
<path d="M1884.84 130H1933.96L2082.21 330.619H2036.93L1997.28 276.766H1822.7L1783.05 330.619H1737.78L1884.84 130ZM1849.33 240.37H1970.06L1909.4 158.11L1849.33 240.37Z" fill="#ECF5FF"/>
<path d="M2405.03 232.085C2410.75 237.608 2415.29 244.02 2418.64 251.318C2422 258.617 2423.67 266.508 2423.67 274.99V330.619H2386.98V274.99C2386.98 268.678 2384.71 263.352 2380.18 259.012C2375.84 254.475 2370.51 252.206 2364.2 252.206H2160.03V330.619H2123.63V130H2364.2C2372.29 130 2379.88 131.578 2386.98 134.734C2394.28 137.891 2400.59 142.132 2405.92 147.458C2411.25 152.784 2415.49 159.097 2418.64 166.396C2421.8 173.497 2423.38 181.092 2423.38 189.18C2423.38 197.662 2421.7 205.651 2418.35 213.147C2415.19 220.446 2410.75 226.759 2405.03 232.085ZM2364.2 211.964C2370.51 211.964 2375.84 209.794 2380.18 205.454C2384.71 200.917 2386.98 195.492 2386.98 189.18C2386.98 182.867 2384.71 177.541 2380.18 173.201C2375.84 168.664 2370.51 166.396 2364.2 166.396H2160.03V211.964H2364.2Z" fill="#ECF5FF"/>
<path d="M2664.54 130C2678.34 130 2691.36 132.663 2703.59 137.989C2715.82 143.118 2726.48 150.22 2735.55 159.294C2744.62 168.368 2751.73 179.021 2756.86 191.251C2762.18 203.481 2764.84 216.501 2764.84 230.31C2764.84 244.118 2762.18 257.138 2756.86 269.368C2751.73 281.599 2744.62 292.251 2735.55 301.325C2726.48 310.399 2715.82 317.6 2703.59 322.926C2691.36 328.055 2678.34 330.619 2664.54 330.619H2465.1V130H2664.54ZM2664.54 294.224C2673.41 294.224 2681.7 292.547 2689.39 289.193C2697.08 285.84 2703.79 281.303 2709.51 275.582C2715.43 269.664 2720.07 262.858 2723.42 255.165C2726.77 247.472 2728.45 239.187 2728.45 230.31C2728.45 221.433 2726.77 213.147 2723.42 205.454C2720.07 197.761 2715.43 191.054 2709.51 185.333C2703.79 179.415 2697.08 174.779 2689.39 171.426C2681.7 168.072 2673.41 166.396 2664.54 166.396H2501.5V294.224H2664.54Z" fill="#ECF5FF"/>
<path d="M1643.69 283.275L1766.19 130H1812.64L1652.56 330.619H1635.1L1525.62 193.914L1415.84 330.619H1398.39L1309.09 219.638H1355.86L1407.26 283.275L1501.95 164.916V164.62H1549V164.916L1643.69 283.275Z" fill="#ECF5FF"/>
<path d="M1027.06 61H1063.46V161.31C1063.46 175.118 1060.79 188.138 1055.47 200.368C1050.34 212.599 1043.24 223.251 1034.16 232.325C1025.09 241.399 1014.44 248.6 1002.21 253.926C989.977 259.055 976.957 261.619 963.148 261.619H864.022C850.214 261.619 837.194 259.055 824.964 253.926C812.733 248.6 802.081 241.399 793.007 232.325C783.933 223.251 776.732 212.599 771.406 200.368C766.277 188.138 763.713 175.118 763.713 161.31V61H800.108V161.31C800.108 170.187 801.785 178.472 805.139 186.165C808.492 193.858 813.029 200.664 818.75 206.582C824.668 212.303 831.474 216.84 839.167 220.193C846.86 223.547 855.146 225.224 864.022 225.224H963.148C972.025 225.224 980.311 223.547 988.004 220.193C995.697 216.84 1002.4 212.303 1008.12 206.582C1014.04 200.664 1018.68 193.858 1022.03 186.165C1025.39 178.472 1027.06 170.187 1027.06 161.31V61Z" fill="#ECF5FF"/>
<path d="M1345.45 61C1353.73 61 1361.43 62.5781 1368.53 65.7344C1375.83 68.8906 1382.14 73.1318 1387.47 78.458C1392.79 83.7842 1397.03 90.0967 1400.19 97.3955C1403.35 104.497 1404.92 112.092 1404.92 120.18C1404.92 128.465 1403.35 136.257 1400.19 143.556C1397.03 150.657 1392.79 156.871 1387.47 162.197C1382.14 167.523 1375.83 171.765 1368.53 174.921C1361.43 178.077 1353.73 179.655 1345.45 179.655H1141.58V261.619H1104.88V61H1345.45ZM1345.45 142.964C1351.76 142.964 1357.09 140.794 1361.43 136.454C1365.96 131.917 1368.23 126.492 1368.23 120.18C1368.23 113.867 1365.96 108.541 1361.43 104.201C1357.09 99.6641 1351.76 97.3955 1345.45 97.3955H1141.58V142.964H1345.45Z" fill="#ECF5FF"/>
<path d="M2050.66 464.805H2064.69L2057.79 445.491H2057.68L2050.66 464.805ZM2054.78 440.503H2060.87L2077.05 481.915H2070.96L2066.43 469.445H2048.92L2044.28 481.915H2038.65L2054.78 440.503ZM2181.59 452.973C2180.97 450.034 2179.6 447.83 2177.47 446.361C2175.38 444.892 2172.89 444.157 2169.99 444.157C2167.51 444.157 2165.39 444.621 2163.61 445.549C2161.87 446.477 2160.42 447.734 2159.26 449.319C2158.14 450.866 2157.31 452.644 2156.77 454.655C2156.22 456.666 2155.95 458.754 2155.95 460.919C2155.95 463.278 2156.22 465.52 2156.77 467.647C2157.31 469.735 2158.14 471.572 2159.26 473.157C2160.42 474.704 2161.89 475.941 2163.67 476.869C2165.45 477.797 2167.57 478.261 2170.05 478.261C2171.86 478.261 2173.47 477.971 2174.86 477.391C2176.29 476.772 2177.51 475.941 2178.52 474.897C2179.56 473.814 2180.37 472.538 2180.95 471.069C2181.53 469.6 2181.88 468.014 2182 466.313H2187.51C2186.96 471.533 2185.17 475.593 2182.11 478.493C2179.06 481.393 2174.88 482.843 2169.58 482.843C2166.37 482.843 2163.57 482.302 2161.17 481.219C2158.78 480.098 2156.78 478.57 2155.2 476.637C2153.61 474.704 2152.42 472.422 2151.6 469.793C2150.83 467.164 2150.44 464.341 2150.44 461.325C2150.44 458.309 2150.87 455.486 2151.72 452.857C2152.57 450.189 2153.81 447.869 2155.43 445.897C2157.09 443.925 2159.14 442.378 2161.58 441.257C2164.05 440.097 2166.88 439.517 2170.05 439.517C2172.21 439.517 2174.26 439.807 2176.2 440.387C2178.13 440.967 2179.85 441.818 2181.36 442.939C2182.87 444.06 2184.12 445.472 2185.13 447.173C2186.13 448.836 2186.79 450.769 2187.1 452.973H2181.59ZM2272.8 464.805H2286.84L2279.94 445.491H2279.82L2272.8 464.805ZM2276.92 440.503H2283.01L2299.19 481.915H2293.1L2288.58 469.445H2271.06L2266.42 481.915H2260.8L2276.92 440.503ZM2380.13 477.275H2389.29C2389.91 477.275 2390.69 477.236 2391.61 477.159C2392.54 477.043 2393.53 476.811 2394.57 476.463C2395.62 476.076 2396.64 475.535 2397.65 474.839C2398.69 474.143 2399.62 473.196 2400.43 471.997C2401.24 470.798 2401.9 469.31 2402.4 467.531C2402.94 465.714 2403.21 463.529 2403.21 460.977C2403.21 458.502 2402.96 456.298 2402.46 454.365C2402 452.393 2401.2 450.73 2400.08 449.377C2399 447.985 2397.59 446.941 2395.85 446.245C2394.11 445.51 2391.96 445.143 2389.41 445.143H2380.13V477.275ZM2374.62 440.503H2388.83C2395.21 440.503 2400.12 442.127 2403.56 445.375C2407 448.623 2408.72 453.572 2408.72 460.223C2408.72 463.703 2408.34 466.796 2407.56 469.503C2406.79 472.171 2405.59 474.433 2403.97 476.289C2402.34 478.106 2400.28 479.498 2397.76 480.465C2395.25 481.432 2392.27 481.915 2388.83 481.915H2374.62V440.503ZM2486.8 440.503H2515.39V445.143H2492.31V458.309H2513.83V462.949H2492.31V477.275H2515.57V481.915H2486.8V440.503ZM2593.71 440.503H2601.25L2614.3 475.303L2627.41 440.503H2634.95V481.915H2629.73V447.463H2629.61L2616.68 481.915H2611.98L2599.05 447.463H2598.93V481.915H2593.71V440.503ZM2732.57 464.979V481.915H2727.06V464.979L2711.05 440.503H2717.6L2730.02 460.223L2742.14 440.503H2748.4L2732.57 464.979Z" fill="url(#paint0_linear_148_482)"/>
<path d="M1501.5 508.415L1547 553.915H2791L2850.5 494.415V433.915" stroke="url(#paint1_linear_148_482)" stroke-width="5"/>
<line x1="764" y1="329.415" x2="1309" y2="329.415" stroke="url(#paint2_linear_148_482)" stroke-width="3"/>
<path d="M325.983 472.226H487.449C486.709 470.792 486.277 469.869 485.773 468.989C473.549 447.659 461.256 426.37 449.097 405.002C381.689 286.541 314.317 168.062 246.933 49.589C246.597 48.996 246.306 48.3738 245.912 47.8217C244.857 46.3407 245.111 45.0554 246.076 43.5569C257.862 25.2647 273.907 12.4262 294.456 5.24899C307.218 0.791328 320.383 -0.923383 333.738 0.475844C358.907 3.11364 380.08 13.7933 396.586 33.3358C401.956 39.6922 406.092 46.8227 410.206 53.9883C451.942 126.722 493.676 199.458 535.412 272.189C570.138 332.7 604.875 393.206 639.592 453.723C643.991 461.391 648.498 469.01 652.605 476.833C660.913 492.656 664.412 509.678 662.482 527.374C658.506 563.801 639.881 590.211 606.753 606.003C598.925 609.733 590.524 611.74 581.933 613.034C576.904 613.79 571.89 613.925 566.844 613.925C514.615 613.925 462.39 613.925 410.162 613.925C409.774 613.925 409.378 613.872 408.999 613.934C407.113 614.243 406.022 613.463 405.092 611.763C401.964 606.052 398.665 600.441 395.423 594.794C372.638 555.102 349.853 515.409 327.074 475.714C326.555 474.811 326.085 473.879 325.593 472.962C325.724 472.717 325.855 472.468 325.986 472.223L325.983 472.226Z" fill="url(#paint3_linear_148_482)"/>
<path d="M0 472.316C13.0629 448.071 161.317 190.496 163.454 188.437C163.979 189.275 164.512 190.067 164.981 190.894C190.781 236.285 216.883 281.507 242.233 327.15C253.932 348.212 266.004 369.054 277.819 390.042C289.643 411.051 301.694 431.935 313.684 452.85C316.728 458.158 319.914 463.384 323.025 468.65C323.555 469.55 324.048 470.476 324.712 471.671C323.782 471.91 323.188 472.144 322.573 472.2C321.707 472.279 320.826 472.226 319.952 472.226C268.788 472.226 217.624 472.226 166.459 472.226C166.072 472.226 165.675 472.273 165.296 472.217C163.279 471.928 162.104 472.866 161.127 474.604C156.845 482.228 152.449 489.791 148.097 497.377C126.434 535.142 104.774 572.906 83.1028 610.665C82.5956 611.547 81.9863 612.374 81.1264 613.679C53.9249 566.275 27.0032 519.364 0 472.316Z" fill="url(#paint4_linear_148_482)"/>
<defs>
<linearGradient id="paint0_linear_148_482" x1="2749" y1="459.779" x2="2039" y2="459.779" gradientUnits="userSpaceOnUse">
<stop stop-color="#FF8400"/>
<stop offset="0.5" stop-color="#FF0095"/>
<stop offset="1" stop-color="#4E02FF"/>
</linearGradient>
<linearGradient id="paint1_linear_148_482" x1="2850.5" y1="492.808" x2="1501.5" y2="492.808" gradientUnits="userSpaceOnUse">
<stop stop-color="#FF8400"/>
<stop offset="0.5" stop-color="#FF0095"/>
<stop offset="1" stop-color="#4E02FF"/>
</linearGradient>
<linearGradient id="paint2_linear_148_482" x1="1309" y1="331.406" x2="764" y2="331.404" gradientUnits="userSpaceOnUse">
<stop stop-color="#FF8400"/>
<stop offset="0.5" stop-color="#FF0095"/>
<stop offset="1" stop-color="#4E02FF"/>
</linearGradient>
<linearGradient id="paint3_linear_148_482" x1="663" y1="301.338" x2="-1.77403e-06" y2="301.338" gradientUnits="userSpaceOnUse">
<stop stop-color="#FF8400"/>
<stop offset="0.5" stop-color="#FF0095"/>
<stop offset="1" stop-color="#4E02FF"/>
</linearGradient>
<linearGradient id="paint4_linear_148_482" x1="663" y1="301.338" x2="-1.77403e-06" y2="301.338" gradientUnits="userSpaceOnUse">
<stop stop-color="#FF8400"/>
<stop offset="0.5" stop-color="#FF0095"/>
<stop offset="1" stop-color="#4E02FF"/>
</linearGradient>
</defs>
</svg>
